<svg width="23" height="18" viewBox="0 0 23 18" fill="none" xmlns="http://www.w3.org/2000/svg">
<path d="M8.42378 1.49355C8.69636 1.44935 8.8815 1.19255 8.8373 0.919964C8.79309 0.647383 8.53629 0.462245 8.26371 0.506447L8.42378 1.49355ZM1.05645 7.97236L0.556469 7.96773L1.05645 7.97236ZM21.525 9.30241L21.0257 9.32989L21.525 9.30241ZM8.89176 2.00403C8.61784 2.03899 8.42413 2.2894 8.4591 2.56332C8.49407 2.83724 8.74447 3.03094 9.01839 2.99597L8.89176 2.00403ZM2.91777 16.6578L2.48069 16.415C2.38544 16.5864 2.39923 16.7977 2.51595 16.9554C2.63267 17.113 2.83076 17.1878 3.02254 17.1467L2.91777 16.6578ZM3.84794 13.0695L3.56384 13.481L3.84794 13.0695ZM6.48341 14.3969L6.65624 13.9277L6.48341 14.3969ZM0.556469 7.96773C0.53322 10.4786 1.78802 12.2548 3.56384 13.481L4.13204 12.6581C2.56411 11.5754 1.53692 10.084 1.55643 7.97699L0.556469 7.96773ZM3.56384 13.481C3.451 13.4031 3.44114 13.3078 3.44849 13.3412C3.45268 13.3601 3.45904 13.4128 3.45465 13.5098C3.44601 13.7003 3.4005 13.9739 3.3159 14.3037C3.14753 14.9601 2.84545 15.7584 2.48069 16.415L3.35485 16.9006C3.76523 16.1619 4.09716 15.2827 4.28455 14.5522C4.37783 14.1885 4.44064 13.8412 4.45362 13.5551C4.46003 13.4137 4.45553 13.2641 4.42503 13.1258C4.3977 13.0019 4.32934 12.7943 4.13204 12.6581L3.56384 13.481ZM3.02254 17.1467C4.2433 16.8851 5.08153 16.1938 5.6583 15.6383C5.97199 15.3362 6.14914 15.1372 6.33228 14.977C6.41618 14.9036 6.45906 14.8782 6.47205 14.8723C6.47695 14.87 6.40713 14.9017 6.31058 14.8661L6.65624 13.9277C6.42435 13.8423 6.20941 13.8927 6.05551 13.9632C5.90971 14.03 5.7801 14.1314 5.67391 14.2243C5.47686 14.3967 5.20338 14.6881 4.96463 14.918C4.43653 15.4266 3.76263 15.9654 2.81301 16.1689L3.02254 17.1467ZM8.26371 0.506447C4.50201 1.11645 0.597809 3.50308 0.556469 7.96773L1.55643 7.97699C1.59098 4.24507 4.85062 2.07298 8.42378 1.49355L8.26371 0.506447ZM6.31058 14.8661C9.13545 15.9067 13.1058 16.793 16.3473 16.3088C17.9753 16.0656 19.4702 15.4688 20.5259 14.3183C21.5903 13.1585 22.1469 11.5034 22.0242 9.27493L21.0257 9.32989C21.1375 11.3593 20.6289 12.7271 19.7892 13.6422C18.9409 14.5666 17.6927 15.0967 16.1996 15.3198C13.1987 15.768 9.41393 14.9436 6.65624 13.9277L6.31058 14.8661ZM22.0242 9.27493C21.9267 7.50252 21.3953 6.09259 20.5425 4.9965C19.6921 3.90351 18.5457 3.15291 17.2638 2.65648C14.715 1.66941 11.568 1.66238 8.89176 2.00403L9.01839 2.99597C11.6281 2.66283 14.5807 2.68978 16.9027 3.589C18.0562 4.03571 19.038 4.69134 19.7533 5.61059C20.4661 6.52675 20.938 7.73508 21.0257 9.32989L22.0242 9.27493Z" fill="white"/>
<path d="M8.80884 6.40899C9.55146 4.41992 12.2398 3.93072 13.549 5.68837C14.0984 6.42585 14.2516 7.57039 13.8651 8.41632C13.3557 9.53156 11.9119 9.59245 10.8335 9.36647C10.8393 9.937 10.8813 10.5068 10.8813 11.077" stroke="white" stroke-linecap="round"/>
<path d="M10.9792 13C10.9792 13 10.9793 13.1882 10.9793 13.3101" stroke="white" stroke-linecap="round"/>
</svg>
