<svg width="40" height="31" viewBox="0 0 40 31" fill="none" xmlns="http://www.w3.org/2000/svg">
<path d="M14.638 1.09316C14.9106 1.04896 15.0957 0.792155 15.0515 0.519574C15.0073 0.246992 14.7505 0.0618542 14.4779 0.106057L14.638 1.09316ZM1.06109 13.5132L0.561115 13.5085L1.06109 13.5132ZM38.9711 15.9766L38.4718 16.0041L38.9711 15.9766ZM15.6269 2.8818C15.353 2.91677 15.1593 3.16717 15.1942 3.44109C15.2292 3.71501 15.4796 3.90872 15.7535 3.87375L15.6269 2.8818ZM4.50847 29.5996L4.07139 29.3568C3.97614 29.5282 3.98993 29.7395 4.10665 29.8971C4.22336 30.0547 4.42146 30.1296 4.61323 30.0885L4.50847 29.5996ZM6.23124 22.9537L5.94714 23.3652L6.23124 22.9537ZM11.1124 25.4122L11.2853 24.943L11.1124 25.4122ZM0.561115 13.5085C0.519649 17.987 2.74671 21.1553 5.94714 23.3652L6.51534 22.5423C3.5228 20.4759 1.52335 17.5923 1.56107 13.5178L0.561115 13.5085ZM5.94714 23.3652C5.87029 23.3121 5.88535 23.2647 5.90749 23.365C5.92644 23.451 5.93744 23.5898 5.92844 23.7884C5.91059 24.182 5.81893 24.7201 5.65855 25.3454C5.3386 26.5928 4.7664 28.1057 4.07139 29.3568L4.94555 29.8424C5.68618 28.5093 6.28823 26.9153 6.62719 25.5938C6.79626 24.9347 6.90523 24.3229 6.92741 23.8337C6.93843 23.5908 6.9293 23.355 6.88402 23.1497C6.84191 22.9587 6.74863 22.7034 6.51534 22.5423L5.94714 23.3652ZM4.61323 30.0885C6.7587 29.6287 8.24118 28.4133 9.28869 27.4045C9.83775 26.8757 10.2069 26.4677 10.552 26.1658C10.7169 26.0216 10.8333 25.9422 10.9139 25.9053C10.9865 25.872 10.9785 25.8957 10.9396 25.8814L11.2853 24.943C10.9957 24.8363 10.7189 24.8947 10.4974 24.9962C10.2839 25.094 10.0808 25.2494 9.89364 25.4132C9.53461 25.7272 9.06914 26.2276 8.59502 26.6842C7.59618 27.6461 6.27804 28.709 4.40371 29.1107L4.61323 30.0885ZM14.4779 0.106057C7.59118 1.22283 0.63479 5.55171 0.561115 13.5085L1.56107 13.5178C1.62796 6.29371 7.93979 2.17936 14.638 1.09316L14.4779 0.106057ZM10.9396 25.8814C16.1429 27.7981 23.4174 29.4132 29.3185 28.5318C32.2763 28.09 34.9398 27.013 36.8068 24.9785C38.6824 22.9346 39.6929 19.9917 39.4703 15.9491L38.4718 16.0041C38.6834 19.8476 37.721 22.5032 36.07 24.3024C34.4105 26.1108 31.9937 27.1211 29.1708 27.5427C23.5104 28.3882 16.4214 26.835 11.2853 24.943L10.9396 25.8814ZM39.4703 15.9491C39.2938 12.7421 38.3351 10.2166 36.8151 8.2632C35.2976 6.31288 33.2445 4.96316 30.925 4.06489C26.301 2.27416 20.5552 2.25265 15.6269 2.8818L15.7535 3.87375C20.6153 3.2531 26.1667 3.29453 30.5639 4.99741C32.755 5.84595 34.6436 7.10071 36.0259 8.87729C37.4058 10.6508 38.3051 12.9746 38.4718 16.0041L39.4703 15.9491Z" fill="#282828"/>
<path d="M15.4199 10.617C16.7953 6.93301 21.7745 6.02695 24.1993 9.28232C25.2167 10.6482 25.5004 12.768 24.7847 14.3348C23.8412 16.4003 21.1671 16.5131 19.1699 16.0946C19.1805 17.1512 19.2584 18.2066 19.2584 19.2626" stroke="#282828" stroke-linecap="round"/>
<path d="M19.4395 22.8252C19.4395 22.8252 19.4395 23.1737 19.4395 23.3995" stroke="#282828" stroke-linecap="round"/>
</svg>
