<svg width="18" height="18" viewBox="0 0 18 18" fill="none" xmlns="http://www.w3.org/2000/svg">
<g clip-path="url(#clip0_403_1849)">
<path d="M17.1205 9.48532C17.1205 4.78282 13.3084 0.970703 8.60593 0.970703C3.90343 0.970703 0.0913086 4.78282 0.0913086 9.48532C0.0913086 13.7351 3.20497 17.2577 7.27552 17.8965V11.9466H5.1136V9.48532H7.27552V7.60945C7.27552 5.47547 8.54673 4.29673 10.4916 4.29673C11.4229 4.29673 12.3976 4.46303 12.3976 4.46303V6.55842H11.324C10.2663 6.55842 9.93634 7.21481 9.93634 7.88883V9.48532H12.2978L11.9203 11.9466H9.93634V17.8965C14.0069 17.2577 17.1205 13.7351 17.1205 9.48532Z" fill="white"/>
</g>
<defs>
<clipPath id="clip0_403_1849">
<rect width="17.0292" height="17.0292" fill="white" transform="translate(0.0913086 0.970703)"/>
</clipPath>
</defs>
</svg>
