<svg width="201" height="58" viewBox="0 0 201 58" fill="none" xmlns="http://www.w3.org/2000/svg">
<path d="M3.00102 46.4395V18.4395H12.201C14.3877 18.4395 16.1877 18.7995 17.601 19.5195C19.0143 20.2395 20.0543 21.2128 20.721 22.4395C21.4144 23.6661 21.761 25.0528 21.761 26.5995C21.761 28.1195 21.4277 29.4928 20.761 30.7195C20.0943 31.9461 19.0544 32.9328 17.641 33.6795C16.2277 34.3995 14.4143 34.7595 12.201 34.7595H6.36102V46.4395H3.00102ZM6.36102 31.9195H12.121C14.361 31.9195 15.9477 31.4528 16.881 30.5195C17.841 29.5595 18.321 28.2528 18.321 26.5995C18.321 24.9195 17.841 23.6128 16.881 22.6795C15.9477 21.7195 14.361 21.2395 12.121 21.2395H6.36102V31.9195ZM30.2276 46.9195C28.5742 46.9195 27.2009 46.6395 26.1076 46.0795C25.0142 45.5195 24.2009 44.7728 23.6676 43.8395C23.1342 42.9061 22.8676 41.8928 22.8676 40.7995C22.8676 38.7728 23.6409 37.2128 25.1876 36.1195C26.7342 35.0261 28.8409 34.4795 31.5076 34.4795H36.8676V34.2395C36.8676 32.5061 36.4142 31.1995 35.5076 30.3195C34.6009 29.4128 33.3876 28.9595 31.8676 28.9595C30.5609 28.9595 29.4276 29.2928 28.4676 29.9595C27.5342 30.5995 26.9476 31.5461 26.7076 32.7995H23.2676C23.4009 31.3595 23.8809 30.1461 24.7076 29.1595C25.5609 28.1728 26.6142 27.4261 27.8676 26.9195C29.1209 26.3861 30.4542 26.1195 31.8676 26.1195C34.6409 26.1195 36.7209 26.8661 38.1076 28.3595C39.5209 29.8261 40.2276 31.7861 40.2276 34.2395V46.4395H37.2276L37.0276 42.8795C36.4676 43.9995 35.6409 44.9595 34.5476 45.7595C33.4809 46.5328 32.0409 46.9195 30.2276 46.9195ZM30.7476 44.0795C32.0276 44.0795 33.1209 43.7461 34.0276 43.0795C34.9609 42.4128 35.6676 41.5461 36.1476 40.4795C36.6276 39.4128 36.8676 38.2928 36.8676 37.1195V37.0795H31.7876C29.8142 37.0795 28.4142 37.4261 27.5876 38.1195C26.7876 38.7861 26.3876 39.6261 26.3876 40.6395C26.3876 41.6795 26.7609 42.5195 27.5076 43.1595C28.2809 43.7728 29.3609 44.0795 30.7476 44.0795ZM43.8682 46.4395V26.5995H46.9082L47.1882 30.3995C47.8015 29.0928 48.7349 28.0528 49.9882 27.2795C51.2415 26.5061 52.7882 26.1195 54.6282 26.1195V29.6395H53.7082C52.5349 29.6395 51.4549 29.8528 50.4682 30.2795C49.4815 30.6795 48.6949 31.3728 48.1082 32.3595C47.5215 33.3461 47.2282 34.7061 47.2282 36.4395V46.4395H43.8682ZM65.1773 46.9195C63.2839 46.9195 61.6039 46.4928 60.1373 45.6395C58.6706 44.7595 57.5106 43.5461 56.6573 41.9995C55.8306 40.4528 55.4173 38.6261 55.4173 36.5195C55.4173 34.4395 55.8306 32.6261 56.6573 31.0795C57.4839 29.5061 58.6306 28.2928 60.0973 27.4395C61.5906 26.5595 63.3106 26.1195 65.2573 26.1195C67.1773 26.1195 68.8306 26.5595 70.2173 27.4395C71.6306 28.2928 72.7106 29.4261 73.4573 30.8395C74.2039 32.2528 74.5773 33.7728 74.5773 35.3995C74.5773 35.6928 74.5639 35.9861 74.5373 36.2795C74.5373 36.5728 74.5373 36.9061 74.5373 37.2795H58.7373C58.8173 38.7995 59.1639 40.0661 59.7773 41.0795C60.4173 42.0661 61.2039 42.8128 62.1373 43.3195C63.0973 43.8261 64.1106 44.0795 65.1773 44.0795C66.5639 44.0795 67.7239 43.7595 68.6573 43.1195C69.5906 42.4795 70.2706 41.6128 70.6973 40.5195H74.0173C73.4839 42.3595 72.4573 43.8928 70.9373 45.1195C69.4439 46.3195 67.5239 46.9195 65.1773 46.9195ZM65.1773 28.9595C63.5773 28.9595 62.1506 29.4528 60.8973 30.4395C59.6706 31.3995 58.9639 32.8128 58.7773 34.6795H71.2573C71.1773 32.8928 70.5639 31.4928 69.4173 30.4795C68.2706 29.4661 66.8573 28.9595 65.1773 28.9595ZM77.6307 46.4395V26.5995H80.6707L80.8707 30.1595C81.5107 28.9061 82.4307 27.9195 83.6307 27.1995C84.8307 26.4795 86.1907 26.1195 87.7107 26.1195C90.0574 26.1195 91.924 26.8395 93.3107 28.2795C94.724 29.6928 95.4307 31.8795 95.4307 34.8395V46.4395H92.0707V35.1995C92.0707 31.0661 90.364 28.9995 86.9507 28.9995C85.244 28.9995 83.8174 29.6261 82.6707 30.8795C81.5507 32.1061 80.9907 33.8661 80.9907 36.1595V46.4395H77.6307ZM106.961 46.4395C105.148 46.4395 103.721 45.9995 102.681 45.1195C101.641 44.2395 101.121 42.6528 101.121 40.3595V29.4395H97.6813V26.5995H101.121L101.561 21.8395H104.481V26.5995H110.321V29.4395H104.481V40.3595C104.481 41.6128 104.735 42.4661 105.241 42.9195C105.748 43.3461 106.641 43.5595 107.921 43.5595H110.001V46.4395H106.961Z" fill="white"/>
<path d="M125.171 39.4395V18.4395H131.981C134.441 18.4395 136.461 18.8695 138.041 19.7295C139.641 20.5895 140.821 21.8095 141.581 23.3895C142.361 24.9495 142.751 26.8095 142.751 28.9695C142.751 31.1095 142.361 32.9695 141.581 34.5495C140.821 36.1095 139.641 37.3195 138.041 38.1795C136.461 39.0195 134.441 39.4395 131.981 39.4395H125.171ZM128.351 36.7395H131.861C133.761 36.7395 135.261 36.4295 136.361 35.8095C137.481 35.1895 138.281 34.2995 138.761 33.1395C139.261 31.9795 139.511 30.5895 139.511 28.9695C139.511 27.3495 139.261 25.9495 138.761 24.7695C138.281 23.5895 137.481 22.6895 136.361 22.0695C135.261 21.4295 133.761 21.1095 131.861 21.1095H128.351V36.7395ZM150.135 39.7995C148.875 39.7995 147.835 39.5895 147.015 39.1695C146.195 38.7495 145.585 38.1995 145.185 37.5195C144.785 36.8195 144.585 36.0595 144.585 35.2395C144.585 33.7995 145.145 32.6595 146.265 31.8195C147.385 30.9795 148.985 30.5595 151.065 30.5595H154.965V30.2895C154.965 29.1295 154.645 28.2595 154.005 27.6795C153.385 27.0995 152.575 26.8095 151.575 26.8095C150.695 26.8095 149.925 27.0295 149.265 27.4695C148.625 27.8895 148.235 28.5195 148.095 29.3595H144.915C145.015 28.2795 145.375 27.3595 145.995 26.5995C146.635 25.8195 147.435 25.2295 148.395 24.8295C149.375 24.4095 150.445 24.1995 151.605 24.1995C153.685 24.1995 155.295 24.7495 156.435 25.8495C157.575 26.9295 158.145 28.4095 158.145 30.2895V39.4395H155.385L155.115 36.8895C154.695 37.7095 154.085 38.3995 153.285 38.9595C152.485 39.5195 151.435 39.7995 150.135 39.7995ZM150.765 37.2195C151.625 37.2195 152.345 37.0195 152.925 36.6195C153.525 36.1995 153.985 35.6495 154.305 34.9695C154.645 34.2895 154.855 33.5395 154.935 32.7195H151.395C150.135 32.7195 149.235 32.9395 148.695 33.3795C148.175 33.8195 147.915 34.3695 147.915 35.0295C147.915 35.7095 148.165 36.2495 148.665 36.6495C149.185 37.0295 149.885 37.2195 150.765 37.2195ZM166.75 39.4395C165.29 39.4395 164.13 39.0895 163.27 38.3895C162.41 37.6695 161.98 36.3995 161.98 34.5795V27.2295H159.43V24.5595H161.98L162.37 20.7795H165.16V24.5595H169.36V27.2295H165.16V34.5795C165.16 35.3995 165.33 35.9695 165.67 36.2895C166.03 36.5895 166.64 36.7395 167.5 36.7395H169.21V39.4395H166.75ZM176.629 39.7995C175.369 39.7995 174.329 39.5895 173.509 39.1695C172.689 38.7495 172.079 38.1995 171.679 37.5195C171.279 36.8195 171.079 36.0595 171.079 35.2395C171.079 33.7995 171.639 32.6595 172.759 31.8195C173.879 30.9795 175.479 30.5595 177.559 30.5595H181.459V30.2895C181.459 29.1295 181.139 28.2595 180.499 27.6795C179.879 27.0995 179.069 26.8095 178.069 26.8095C177.189 26.8095 176.419 27.0295 175.759 27.4695C175.119 27.8895 174.729 28.5195 174.589 29.3595H171.409C171.509 28.2795 171.869 27.3595 172.489 26.5995C173.129 25.8195 173.929 25.2295 174.889 24.8295C175.869 24.4095 176.939 24.1995 178.099 24.1995C180.179 24.1995 181.789 24.7495 182.929 25.8495C184.069 26.9295 184.639 28.4095 184.639 30.2895V39.4395H181.879L181.609 36.8895C181.189 37.7095 180.579 38.3995 179.779 38.9595C178.979 39.5195 177.929 39.7995 176.629 39.7995ZM177.259 37.2195C178.119 37.2195 178.839 37.0195 179.419 36.6195C180.019 36.1995 180.479 35.6495 180.799 34.9695C181.139 34.2895 181.349 33.5395 181.429 32.7195H177.889C176.629 32.7195 175.729 32.9395 175.189 33.3795C174.669 33.8195 174.409 34.3695 174.409 35.0295C174.409 35.7095 174.659 36.2495 175.159 36.6495C175.679 37.0295 176.379 37.2195 177.259 37.2195Z" fill="white"/>
<path d="M194.546 35.1679C181.514 52.5096 153.011 60.9342 132.044 56.1939C115.136 52.3712 108.855 29.0768 118.76 15.6953C126.165 5.69258 139.928 1.95798 151.768 0.883111C163.135 -0.148802 174.565 0.58043 184.227 7.13313C191.567 12.1111 198.725 19.6219 199.852 28.7011C200.327 32.5181 199.927 36.7893 198.425 40.3702C195.327 47.7585 188.651 50.6739 182.69 55.3269" stroke="white" stroke-linecap="round"/>
</svg>
