<?xml version="1.0" encoding="utf-8"?>
<!-- Generator: Adobe Illustrator 24.0.0, SVG Export Plug-In . SVG Version: 6.00 Build 0)  -->
<svg version="1.1" id="Layer_1" xmlns="http://www.w3.org/2000/svg" xmlns:xlink="http://www.w3.org/1999/xlink" x="0px" y="0px"
	 viewBox="0 0 32 32" style="enable-background:new 0 0 32 32;" xml:space="preserve">
<style type="text/css">
	.st0{fill:#FFFFFF;}
</style>
<path class="st0" d="M30.4,0H1.6C0.7,0,0,0.7,0,1.6v28.8C0,31.3,0.7,32,1.6,32h28.8c0.9,0,1.6-0.7,1.6-1.6V1.6C32,0.7,31.3,0,30.4,0
	z M25.2,14L25.2,14c-0.2,0-0.4,0-0.5,0c-1.9,0-3.7-1-4.8-2.6v8.8c0,3.6-2.9,6.5-6.5,6.5s-6.5-2.9-6.5-6.5c0-3.6,2.9-6.5,6.5-6.5
	c0,0,0,0,0,0c0.1,0,0.3,0,0.4,0v3.2c-1.8-0.2-3.5,1.1-3.7,2.9c-0.2,1.8,1.1,3.5,2.9,3.7c0.1,0,0.3,0,0.4,0c1.9,0,3.4-1.4,3.5-3.3
	l0-14.9h3.1c0.3,2.7,2.5,4.9,5.3,5.1V14z"/>
</svg>
